<?xml version="1.0" standalone="no"?>
<!DOCTYPE svg PUBLIC "-//W3C//DTD SVG 1.1//EN"
"http://www.w3.org/Graphics/SVG/1.1/DTD/svg11.dtd">

<svg width="652" height="568" view_box="0 0 652 568"
xmlns="http://www.w3.org/2000/svg"
xmlns:link="http://www.w3.org/1999/xlink">\n\n<desc>Généré par Mocodo 2.3.7 le Tue, 06 Feb 2018 12:52:55</desc>

<rect id="frame" x="0" y="0" width="652" height="568" fill="#f5f5f5" stroke="none" stroke-width="0"/>

<!-- Association roule -->
<line x1="162" y1="313" x2="50" y2="178" stroke="#bf812d" stroke-width="2"/>
<text x="126.011709782" y="263" fill="#01665e" font-family="Verdana" font-size="12">0,1</text>
<line x1="50" y1="60" x2="50" y2="178" stroke="#bf812d" stroke-width="2"/>
<text x="55.0" y="119" fill="#01665e" font-family="Verdana" font-size="12">0,1</text>
<g id="association-roule">
	<path d="M 59 153 a 14 14 90 0 1 14 14 V 178 h -46 V 167 a 14 14 90 0 1 14 -14" fill="#dfc27d" stroke="#dfc27d" stroke-width="0"/>
	<path d="M 73 178.0 v 11 a 14 14 90 0 1 -14 14 H 41 a 14 14 90 0 1 -14 -14 V 178.0 H 46" fill="#f6e8c3" stroke="#f6e8c3" stroke-width="0"/>
	<rect x="27" y="153" width="46" height="50" fill="none" rx="14" stroke="#bf812d" stroke-width="2"/>
	<line x1="27" y1="178" x2="73" y2="178" stroke="#bf812d" stroke-width="1"/>
	<text x="34" y="170.7" fill="#000000" font-family="Verdana" font-size="12">roule</text>
</g>

<!-- Association inclut -->
<line x1="292" y1="491" x2="425" y2="491" stroke="#bf812d" stroke-width="2"/>
<text x="374" y="508.0" fill="#01665e" font-family="Verdana" font-size="12">1,N</text>
<line x1="425" y1="313" x2="425" y2="491" stroke="#bf812d" stroke-width="2"/>
<text x="430.0" y="415" fill="#01665e" font-family="Verdana" font-size="12">1,1</text>
<g id="association-inclut">
	<path d="M 435 466 a 14 14 90 0 1 14 14 V 491 h -48 V 480 a 14 14 90 0 1 14 -14" fill="#dfc27d" stroke="#dfc27d" stroke-width="0"/>
	<path d="M 449 491.0 v 11 a 14 14 90 0 1 -14 14 H 415 a 14 14 90 0 1 -14 -14 V 491.0 H 48" fill="#f6e8c3" stroke="#f6e8c3" stroke-width="0"/>
	<rect x="401" y="466" width="48" height="50" fill="none" rx="14" stroke="#bf812d" stroke-width="2"/>
	<line x1="401" y1="491" x2="449" y2="491" stroke="#bf812d" stroke-width="1"/>
	<text x="408" y="483.7" fill="#000000" font-family="Verdana" font-size="12">inclut</text>
</g>

<!-- Association utilise -->
<line x1="569" y1="491" x2="569" y2="313" stroke="#bf812d" stroke-width="2"/>
<text x="574.0" y="441" fill="#01665e" font-family="Verdana" font-size="12">0,N</text>
<line x1="425" y1="313" x2="569" y2="313" stroke="#bf812d" stroke-width="2"/>
<text x="482" y="330.0" fill="#01665e" font-family="Verdana" font-size="12">0,1</text>
<g id="association-utilise">
	<path d="M 581 288 a 14 14 90 0 1 14 14 V 313 h -52 V 302 a 14 14 90 0 1 14 -14" fill="#dfc27d" stroke="#dfc27d" stroke-width="0"/>
	<path d="M 595 313.0 v 11 a 14 14 90 0 1 -14 14 H 557 a 14 14 90 0 1 -14 -14 V 313.0 H 52" fill="#f6e8c3" stroke="#f6e8c3" stroke-width="0"/>
	<rect x="543" y="288" width="52" height="50" fill="none" rx="14" stroke="#bf812d" stroke-width="2"/>
	<line x1="543" y1="313" x2="595" y2="313" stroke="#bf812d" stroke-width="1"/>
	<text x="550" y="305.7" fill="#000000" font-family="Verdana" font-size="12">utilise</text>
</g>

<!-- Association s'occupe -->
<line x1="162" y1="313" x2="50" y2="313" stroke="#bf812d" stroke-width="2"/>
<text x="89" y="330.0" fill="#01665e" font-family="Verdana" font-size="12">1,1</text>
<line x1="50" y1="491" x2="50" y2="313" stroke="#bf812d" stroke-width="2"/>
<text x="55.0" y="449" fill="#01665e" font-family="Verdana" font-size="12">0,N</text>
<g id="association-s'occupe">
	<path d="M 69 288 a 14 14 90 0 1 14 14 V 313 h -66 V 302 a 14 14 90 0 1 14 -14" fill="#dfc27d" stroke="#dfc27d" stroke-width="0"/>
	<path d="M 83 313.0 v 11 a 14 14 90 0 1 -14 14 H 31 a 14 14 90 0 1 -14 -14 V 313.0 H 66" fill="#f6e8c3" stroke="#f6e8c3" stroke-width="0"/>
	<rect x="17" y="288" width="66" height="50" fill="none" rx="14" stroke="#bf812d" stroke-width="2"/>
	<line x1="17" y1="313" x2="83" y2="313" stroke="#bf812d" stroke-width="1"/>
	<text x="24" y="305.7" fill="#000000" font-family="Verdana" font-size="12">s'occupe</text>
</g>

<!-- Association occupe -->
<line x1="292" y1="60" x2="292" y2="178" stroke="#bf812d" stroke-width="2"/>
<text x="297.0" y="111" fill="#01665e" font-family="Verdana" font-size="12">0,N</text>
<line x1="162" y1="313" x2="292" y2="178" stroke="#bf812d" stroke-width="2"/>
<text x="183.326800584" y="263" fill="#01665e" font-family="Verdana" font-size="12">1,1</text>
<g id="association-occupe">
	<path d="M 307 153 a 14 14 90 0 1 14 14 V 178 h -58 V 167 a 14 14 90 0 1 14 -14" fill="#dfc27d" stroke="#dfc27d" stroke-width="0"/>
	<path d="M 321 178.0 v 11 a 14 14 90 0 1 -14 14 H 277 a 14 14 90 0 1 -14 -14 V 178.0 H 58" fill="#f6e8c3" stroke="#f6e8c3" stroke-width="0"/>
	<rect x="263" y="153" width="58" height="50" fill="none" rx="14" stroke="#bf812d" stroke-width="2"/>
	<line x1="263" y1="178" x2="321" y2="178" stroke="#bf812d" stroke-width="1"/>
	<text x="270" y="170.7" fill="#000000" font-family="Verdana" font-size="12">occupe</text>
</g>

<!-- Association applique -->
<line x1="162" y1="178" x2="162" y2="60" stroke="#bf812d" stroke-width="2"/>
<text x="167.0" y="119" fill="#01665e" font-family="Verdana" font-size="12">0,N</text>
<line x1="50" y1="60" x2="162" y2="60" stroke="#bf812d" stroke-width="2"/>
<text x="96" y="77.0" fill="#01665e" font-family="Verdana" font-size="12">1,1</text>
<g id="association-applique">
	<path d="M 181 35 a 14 14 90 0 1 14 14 V 60 h -66 V 49 a 14 14 90 0 1 14 -14" fill="#dfc27d" stroke="#dfc27d" stroke-width="0"/>
	<path d="M 195 60.0 v 11 a 14 14 90 0 1 -14 14 H 143 a 14 14 90 0 1 -14 -14 V 60.0 H 66" fill="#f6e8c3" stroke="#f6e8c3" stroke-width="0"/>
	<rect x="129" y="35" width="66" height="50" fill="none" rx="14" stroke="#bf812d" stroke-width="2"/>
	<line x1="129" y1="60" x2="195" y2="60" stroke="#bf812d" stroke-width="1"/>
	<text x="136" y="52.7" fill="#000000" font-family="Verdana" font-size="12">applique</text>
</g>

<!-- Association justifie -->
<line x1="425" y1="313" x2="425" y2="178" stroke="#bf812d" stroke-width="2"/>
<text x="430.0" y="220" fill="#01665e" font-family="Verdana" font-size="12">0,1</text>
<line x1="425" y1="60" x2="425" y2="178" stroke="#bf812d" stroke-width="2"/>
<text x="430.0" y="111" fill="#01665e" font-family="Verdana" font-size="12">0,N</text>
<g id="association-justifie">
	<path d="M 439 153 a 14 14 90 0 1 14 14 V 178 h -56 V 167 a 14 14 90 0 1 14 -14" fill="#dfc27d" stroke="#dfc27d" stroke-width="0"/>
	<path d="M 453 178.0 v 11 a 14 14 90 0 1 -14 14 H 411 a 14 14 90 0 1 -14 -14 V 178.0 H 56" fill="#f6e8c3" stroke="#f6e8c3" stroke-width="0"/>
	<rect x="397" y="153" width="56" height="50" fill="none" rx="14" stroke="#bf812d" stroke-width="2"/>
	<line x1="397" y1="178" x2="453" y2="178" stroke="#bf812d" stroke-width="1"/>
	<text x="404" y="170.7" fill="#000000" font-family="Verdana" font-size="12">justifie</text>
</g>

<!-- Association cloture -->
<line x1="162" y1="313" x2="292" y2="313" stroke="#bf812d" stroke-width="2"/>
<text x="214" y="330.0" fill="#01665e" font-family="Verdana" font-size="12">0,N</text>
<line x1="292" y1="491" x2="292" y2="313" stroke="#bf812d" stroke-width="2"/>
<text x="297.0" y="415" fill="#01665e" font-family="Verdana" font-size="12">0,1</text>
<g id="association-cloture">
	<path d="M 306 288 a 14 14 90 0 1 14 14 V 313 h -56 V 302 a 14 14 90 0 1 14 -14" fill="#dfc27d" stroke="#dfc27d" stroke-width="0"/>
	<path d="M 320 313.0 v 11 a 14 14 90 0 1 -14 14 H 278 a 14 14 90 0 1 -14 -14 V 313.0 H 56" fill="#f6e8c3" stroke="#f6e8c3" stroke-width="0"/>
	<rect x="264" y="288" width="56" height="50" fill="none" rx="14" stroke="#bf812d" stroke-width="2"/>
	<line x1="264" y1="313" x2="320" y2="313" stroke="#bf812d" stroke-width="1"/>
	<text x="271" y="305.7" fill="#000000" font-family="Verdana" font-size="12">cloture</text>
</g>

<!-- Association cree -->
<line x1="162" y1="313" x2="162" y2="491" stroke="#bf812d" stroke-width="2"/>
<text x="167.0" y="372" fill="#01665e" font-family="Verdana" font-size="12">0,N</text>
<line x1="292" y1="491" x2="162" y2="491" stroke="#bf812d" stroke-width="2"/>
<text x="189" y="508.0" fill="#01665e" font-family="Verdana" font-size="12">1,1</text>
<line x1="189" y1="510.0" x2="210" y2="510.0" stroke="#01665e" stroke-width="1"/>
<g id="association-cree">
	<path d="M 169 466 a 14 14 90 0 1 14 14 V 491 h -42 V 480 a 14 14 90 0 1 14 -14" fill="#dfc27d" stroke="#dfc27d" stroke-width="0"/>
	<path d="M 183 491.0 v 11 a 14 14 90 0 1 -14 14 H 155 a 14 14 90 0 1 -14 -14 V 491.0 H 42" fill="#f6e8c3" stroke="#f6e8c3" stroke-width="0"/>
	<rect x="141" y="466" width="42" height="50" fill="none" rx="14" stroke="#bf812d" stroke-width="2"/>
	<line x1="141" y1="491" x2="183" y2="491" stroke="#bf812d" stroke-width="1"/>
	<text x="148" y="483.7" fill="#000000" font-family="Verdana" font-size="12">cree</text>
</g>

<!-- Entity FRAIS -->
<g id="entity-FRAIS">
	<g id="frame-FRAIS">
		<rect x="373" y="228" width="104" height="25" fill="#80cdc1" stroke="#80cdc1" stroke-width="0"/>
		<rect x="373" y="253.0" width="104" height="145" fill="#c7eae5" stroke="#c7eae5" stroke-width="0"/>
		<rect x="373" y="228" width="104" height="170" fill="none" stroke="#35978f" stroke-width="2"/>
		<line x1="373" y1="253" x2="477" y2="253" stroke="#35978f" stroke-width="1"/>
	</g>
	<text x="406" y="245.7" fill="#000000" font-family="Verdana" font-size="12">FRAIS</text>
	<text x="378" y="270.7" fill="#000000" font-family="Verdana" font-size="12">FR_ID</text>
	<line x1="378" y1="273" x2="416" y2="273" stroke="#000000" stroke-width="1"/>
	<text x="378" y="287.7" fill="#000000" font-family="Verdana" font-size="12">FR_libelle_libre</text>
	<text x="378" y="304.7" fill="#000000" font-family="Verdana" font-size="12">FR_date</text>
	<text x="378" y="321.8" fill="#000000" font-family="Verdana" font-size="12">FR_quantite</text>
	<text x="378" y="338.8" fill="#000000" font-family="Verdana" font-size="12">FR_montant</text>
	<text x="378" y="355.8" fill="#000000" font-family="Verdana" font-size="12">FR_total</text>
	<text x="378" y="372.8" fill="#000000" font-family="Verdana" font-size="12">FR_Taxe</text>
	<text x="378" y="389.8" fill="#000000" font-family="Verdana" font-size="12">FR_status</text>
</g>

<!-- Entity FRAIS_KM -->
<g id="entity-FRAIS_KM">
	<g id="frame-FRAIS_KM">
		<rect x="116" y="127" width="92" height="25" fill="#80cdc1" stroke="#80cdc1" stroke-width="0"/>
		<rect x="116" y="152.0" width="92" height="77" fill="#c7eae5" stroke="#c7eae5" stroke-width="0"/>
		<rect x="116" y="127" width="92" height="102" fill="none" stroke="#35978f" stroke-width="2"/>
		<line x1="116" y1="152" x2="208" y2="152" stroke="#35978f" stroke-width="1"/>
	</g>
	<text x="130" y="144.7" fill="#000000" font-family="Verdana" font-size="12">FRAIS_KM</text>
	<text x="121" y="169.7" fill="#000000" font-family="Verdana" font-size="12">FK_ID</text>
	<line x1="121" y1="172" x2="159" y2="172" stroke="#000000" stroke-width="1"/>
	<text x="121" y="186.8" fill="#000000" font-family="Verdana" font-size="12">FK_cv</text>
	<text x="121" y="203.8" fill="#000000" font-family="Verdana" font-size="12">FK_carburant</text>
	<text x="121" y="220.8" fill="#000000" font-family="Verdana" font-size="12">FK_remb</text>
</g>

<!-- Entity TYPE_REFUS -->
<g id="entity-TYPE_REFUS">
	<g id="frame-TYPE_REFUS">
		<rect x="381" y="26" width="88" height="25" fill="#80cdc1" stroke="#80cdc1" stroke-width="0"/>
		<rect x="381" y="51.0" width="88" height="43" fill="#c7eae5" stroke="#c7eae5" stroke-width="0"/>
		<rect x="381" y="26" width="88" height="68" fill="none" stroke="#35978f" stroke-width="2"/>
		<line x1="381" y1="51" x2="469" y2="51" stroke="#35978f" stroke-width="1"/>
	</g>
	<text x="386" y="43.7" fill="#000000" font-family="Verdana" font-size="12">TYPE_REFUS</text>
	<text x="386" y="68.8" fill="#000000" font-family="Verdana" font-size="12">TRE_ID</text>
	<line x1="386" y1="71" x2="432" y2="71" stroke="#000000" stroke-width="1"/>
	<text x="386" y="85.8" fill="#000000" font-family="Verdana" font-size="12">TRE_libelle</text>
</g>

<!-- Entity VEHICULES -->
<g id="entity-VEHICULES">
	<g id="frame-VEHICULES">
		<rect x="9" y="18" width="82" height="25" fill="#80cdc1" stroke="#80cdc1" stroke-width="0"/>
		<rect x="9" y="43.0" width="82" height="59" fill="#c7eae5" stroke="#c7eae5" stroke-width="0"/>
		<rect x="9" y="18" width="82" height="84" fill="none" stroke="#35978f" stroke-width="2"/>
		<line x1="9" y1="43" x2="91" y2="43" stroke="#35978f" stroke-width="1"/>
	</g>
	<text x="14" y="35.7" fill="#000000" font-family="Verdana" font-size="12">VEHICULES</text>
	<text x="14" y="60.8" fill="#000000" font-family="Verdana" font-size="12">VE_immat</text>
	<line x1="14" y1="63" x2="77" y2="63" stroke="#000000" stroke-width="1"/>
	<text x="14" y="77.8" fill="#000000" font-family="Verdana" font-size="12">VE_marque</text>
	<text x="14" y="94.8" fill="#000000" font-family="Verdana" font-size="12">VE_model</text>
</g>

<!-- Entity SECTEUR -->
<g id="entity-SECTEUR">
	<g id="frame-SECTEUR">
		<rect x="15" y="457" width="70" height="25" fill="#80cdc1" stroke="#80cdc1" stroke-width="0"/>
		<rect x="15" y="482.0" width="70" height="43" fill="#c7eae5" stroke="#c7eae5" stroke-width="0"/>
		<rect x="15" y="457" width="70" height="68" fill="none" stroke="#35978f" stroke-width="2"/>
		<line x1="15" y1="482" x2="85" y2="482" stroke="#35978f" stroke-width="1"/>
	</g>
	<text x="21" y="474.7" fill="#000000" font-family="Verdana" font-size="12">SECTEUR</text>
	<text x="20" y="499.8" fill="#000000" font-family="Verdana" font-size="12">SE_ID</text>
	<line x1="20" y1="502" x2="59" y2="502" stroke="#000000" stroke-width="1"/>
	<text x="20" y="516.8" fill="#000000" font-family="Verdana" font-size="12">SE_libelle</text>
</g>

<!-- Entity PARAMETRES -->
<g id="entity-PARAMETRES">
	<g id="frame-PARAMETRES">
		<rect x="501" y="9" width="136" height="25" fill="#80cdc1" stroke="#80cdc1" stroke-width="0"/>
		<rect x="501" y="34.0" width="136" height="77" fill="#c7eae5" stroke="#c7eae5" stroke-width="0"/>
		<rect x="501" y="9" width="136" height="102" fill="none" stroke="#35978f" stroke-width="2"/>
		<line x1="501" y1="34" x2="637" y2="34" stroke="#35978f" stroke-width="1"/>
	</g>
	<text x="528" y="26.7" fill="#000000" font-family="Verdana" font-size="12">PARAMETRES</text>
	<text x="506" y="51.7" fill="#000000" font-family="Verdana" font-size="12">PA_ID</text>
	<line x1="506" y1="54" x2="544" y2="54" stroke="#000000" stroke-width="1"/>
	<text x="506" y="68.8" fill="#000000" font-family="Verdana" font-size="12">validite_Depense</text>
	<text x="506" y="85.8" fill="#000000" font-family="Verdana" font-size="12">cloture_envoi_FDRM</text>
	<text x="506" y="102.8" fill="#000000" font-family="Verdana" font-size="12">nbrj_atravaille</text>
</g>

<!-- Entity AGENTS -->
<g id="entity-AGENTS">
	<g id="frame-AGENTS">
		<rect x="115" y="271" width="94" height="25" fill="#80cdc1" stroke="#80cdc1" stroke-width="0"/>
		<rect x="115" y="296.0" width="94" height="59" fill="#c7eae5" stroke="#c7eae5" stroke-width="0"/>
		<rect x="115" y="271" width="94" height="84" fill="none" stroke="#35978f" stroke-width="2"/>
		<line x1="115" y1="296" x2="209" y2="296" stroke="#35978f" stroke-width="1"/>
	</g>
	<text x="136" y="288.7" fill="#000000" font-family="Verdana" font-size="12">AGENTS</text>
	<text x="120" y="313.8" fill="#000000" font-family="Verdana" font-size="12">AG_matricule</text>
	<line x1="120" y1="316" x2="202" y2="316" stroke="#000000" stroke-width="1"/>
	<text x="120" y="330.8" fill="#000000" font-family="Verdana" font-size="12">AG_nom</text>
	<text x="120" y="347.8" fill="#000000" font-family="Verdana" font-size="12">AG_password</text>
</g>

<!-- Entity MODELE_FRAIS -->
<g id="entity-MODELE_FRAIS">
	<g id="frame-MODELE_FRAIS">
		<rect x="495" y="449" width="148" height="25" fill="#80cdc1" stroke="#80cdc1" stroke-width="0"/>
		<rect x="495" y="474.0" width="148" height="59" fill="#c7eae5" stroke="#c7eae5" stroke-width="0"/>
		<rect x="495" y="449" width="148" height="84" fill="none" stroke="#35978f" stroke-width="2"/>
		<line x1="495" y1="474" x2="643" y2="474" stroke="#35978f" stroke-width="1"/>
	</g>
	<text x="521" y="466.7" fill="#000000" font-family="Verdana" font-size="12">MODELE_FRAIS</text>
	<text x="500" y="491.8" fill="#000000" font-family="Verdana" font-size="12">MFR_ID</text>
	<line x1="500" y1="494" x2="548" y2="494" stroke="#000000" stroke-width="1"/>
	<text x="500" y="508.8" fill="#000000" font-family="Verdana" font-size="12">MFR_libelle</text>
	<text x="500" y="525.8" fill="#000000" font-family="Verdana" font-size="12">MFR_montant_unitaire</text>
</g>

<!-- Entity TYPE_AGENT -->
<g id="entity-TYPE_AGENT">
	<g id="frame-TYPE_AGENT">
		<rect x="247" y="26" width="90" height="25" fill="#80cdc1" stroke="#80cdc1" stroke-width="0"/>
		<rect x="247" y="51.0" width="90" height="43" fill="#c7eae5" stroke="#c7eae5" stroke-width="0"/>
		<rect x="247" y="26" width="90" height="68" fill="none" stroke="#35978f" stroke-width="2"/>
		<line x1="247" y1="51" x2="337" y2="51" stroke="#35978f" stroke-width="1"/>
	</g>
	<text x="252" y="43.7" fill="#000000" font-family="Verdana" font-size="12">TYPE_AGENT</text>
	<text x="252" y="68.8" fill="#000000" font-family="Verdana" font-size="12">TA_ID</text>
	<line x1="252" y1="71" x2="291" y2="71" stroke="#000000" stroke-width="1"/>
	<text x="252" y="85.8" fill="#000000" font-family="Verdana" font-size="12">TA_libelle</text>
</g>

<!-- Entity FDRM -->
<g id="entity-FDRM">
	<g id="frame-FDRM">
		<rect x="215" y="423" width="154" height="25" fill="#80cdc1" stroke="#80cdc1" stroke-width="0"/>
		<rect x="215" y="448.0" width="154" height="111" fill="#c7eae5" stroke="#c7eae5" stroke-width="0"/>
		<rect x="215" y="423" width="154" height="136" fill="none" stroke="#35978f" stroke-width="2"/>
		<line x1="215" y1="448" x2="369" y2="448" stroke="#35978f" stroke-width="1"/>
	</g>
	<text x="274" y="440.7" fill="#000000" font-family="Verdana" font-size="12">FDRM</text>
	<text x="220" y="465.7" fill="#000000" font-family="Verdana" font-size="12">FDRM_mois</text>
	<line x1="220" y1="468" x2="292" y2="468" style="fill:none;stroke:#000000;stroke-width:1;stroke-dasharray:4;"/>
	<text x="220" y="482.7" fill="#000000" font-family="Verdana" font-size="12">FDRM_reception</text>
	<text x="220" y="499.8" fill="#000000" font-family="Verdana" font-size="12">FDRM_validation</text>
	<text x="220" y="516.8" fill="#000000" font-family="Verdana" font-size="12">FDRM_paiement</text>
	<text x="220" y="533.8" fill="#000000" font-family="Verdana" font-size="12">FDRM_rembloursement</text>
	<text x="220" y="550.8" fill="#000000" font-family="Verdana" font-size="12">nbrj_conges</text>
</g>
</svg>